<?xml version="1.0" encoding="UTF-8" standalone="no"?>
<!-- Created with Inkscape (http://www.inkscape.org/) -->

<svg
   xmlns:dc="http://purl.org/dc/elements/1.1/"
   xmlns:cc="http://creativecommons.org/ns#"
   xmlns:rdf="http://www.w3.org/1999/02/22-rdf-syntax-ns#"
   xmlns:svg="http://www.w3.org/2000/svg"
   xmlns="http://www.w3.org/2000/svg"
   xmlns:sodipodi="http://sodipodi.sourceforge.net/DTD/sodipodi-0.dtd"
   xmlns:inkscape="http://www.inkscape.org/namespaces/inkscape"
   id="svg3048"
   height="1000"
   width="1000"
   version="1.1"
   inkscape:version="0.48.4 r9939"
   sodipodi:docname="avatar.svg">
  <defs
     id="defs3974" />
  <sodipodi:namedview
     pagecolor="#ffffff"
     bordercolor="#666666"
     borderopacity="1"
     objecttolerance="10"
     gridtolerance="10"
     guidetolerance="10"
     inkscape:pageopacity="0"
     inkscape:pageshadow="2"
     inkscape:window-width="1248"
     inkscape:window-height="690"
     id="namedview3972"
     showgrid="false"
     inkscape:zoom="0.236"
     inkscape:cx="1021.1166"
     inkscape:cy="666.42009"
     inkscape:window-x="0"
     inkscape:window-y="36"
     inkscape:window-maximized="0"
     inkscape:current-layer="svg3048" />
  <metadata
     id="metadata3053">
    <rdf:RDF>
      <cc:Work
         rdf:about="">
        <dc:format>image/svg+xml</dc:format>
        <dc:type
           rdf:resource="http://purl.org/dc/dcmitype/StillImage" />
        <dc:title></dc:title>
      </cc:Work>
    </rdf:RDF>
  </metadata>
  <g
     line-height="125%"
     font-size="40px"
     transform="matrix(6.1094855,0,0,6.517446,-492.71391,-422.91321)"
     style="font-size:40px;font-style:normal;font-weight:normal;line-height:125%;letter-spacing:0px;word-spacing:0px;fill:#000000;font-family:Sans"
     id="flowRoot3067">
    <path
       inkscape:connector-curvature="0"
       d="m 139.85,82.835 0,29.664 -12.528,0 0,-29.664 -17.28,0 0,76.895 17.28,0 0,-29.952 12.528,0 0,29.952 17.424,0 0,-76.895 z m 8.0639,40.031 0,27.792 -6.6239,6.6239 0,-27.936 z m 0,-31.104 0,27.936 -6.6239,-6.6239 0,-27.936 z m -5.6159,-7.6319 12.384,0 -6.1919,6.1919 z m 1.872,37.728 2.736,0 -1.44,1.44 z m 0.288,2.304 -1.872,2.016 -4.464,-4.3199 4.032,0 z m -1.728,34.128 -0.43199,0 0.288,-0.288 z m 2.736,-3.168 3.312,3.168 -4.032,0 -1.296,-1.152 z m 3.024,-3.024 6.1919,6.1919 -4.032,0 -4.1759,-4.176 z m 0.71999,-5.1839 6.6239,6.6239 0,3.888 -6.6239,-6.4799 z m 0,-6.0479 6.6239,6.6239 0,4.032 -6.6239,-6.6239 z m 0,-5.9039 6.6239,6.6239 0,3.888 -6.6239,-6.4799 z m 0,-6.0479 6.6239,6.6239 0,4.032 -6.6239,-6.6239 z m 0,-5.9039 6.6239,6.6239 0,3.888 -6.6239,-6.4799 z m 0,-6.0479 6.6239,6.6239 0,4.0319 -6.6239,-6.6239 z m 0,-5.9039 6.6239,6.6239 0,3.888 -6.6239,-6.4799 z m 0,-6.0479 6.6239,6.6239 0,4.032 -6.6239,-6.6239 z m 0,-5.9039 6.6239,6.6239 0,3.888 -6.6239,-6.4799 z m 0,-6.0479 6.6239,6.6239 0,4.0319 -6.6239,-6.6239 z m 2.304,-3.744 4.3199,4.4639 0,3.888 -6.3359,-6.3359 z m 2.88,-2.88 1.44,1.296 0,4.0319 -3.312,-3.456 z m 1.44,-1.44 0,0.86399 -0.43199,-0.43199 z m -9.0719,35.424 -26.352,0 6.4799,-6.4799 13.248,0 z m -9.9359,8.0639 -4.032,0 -6.6239,-6.6239 4.0319,0 z m -10.8,-40.751 0,4.0319 -3.456,-3.312 2.016,-2.016 z m 0,6.0479 0,3.888 -6.4799,-6.3359 2.016,-2.016 z m 0,9.9359 -6.6239,-6.6239 0,-4.0319 6.6239,6.6239 z m 0,2.016 0,3.888 -6.6239,-6.4799 0,-4.032 z m 0,41.759 0,4.032 -6.6239,-6.6239 0,-4.032 z m -5.4719,-29.232 -1.152,1.152 0,-2.448 z m -1.152,-3.168 0,-4.0319 4.176,4.1759 -2.016,2.016 z m 0,-6.0479 0,-4.032 6.6239,6.6239 0,1.296 -1.44,1.296 z m 6.6239,-24.048 0,0.86399 -0.432,-0.43199 z m -13.536,-0.86399 12.384,0 -6.1919,6.1919 z m 5.4719,66.527 -6.4799,6.6239 0,-72.143 6.4799,6.6239 z m -5.0399,7.6319 -0.432,0 0.144,-0.288 z m 2.736,-3.168 3.168,3.168 -4.032,0 -1.152,-1.152 z m 3.024,-3.024 6.1919,6.1919 -4.0319,0 -4.176,-4.176 z m 0.71999,-5.1839 6.6239,6.6239 0,3.888 -6.6239,-6.4799 z m 0,-11.952 6.6239,6.6239 0,3.888 -6.6239,-6.4799 z m 0,-6.0479 6.6239,6.6239 0,4.032 -6.6239,-6.6239 z m 0,-1.872 0,-4.032 6.6239,6.6239 0,3.888 z m 0.86399,-5.1839 3.888,0 6.6239,6.6239 -4.032,0 z m 11.952,0 3.888,0 5.4719,5.3279 -1.152,1.296 -1.728,0 z"
       id="path3138" />
    <path
       inkscape:connector-curvature="0"
       d="m 183.29,112.5 0,-12.384 12.528,0 0,5.9039 17.424,-4.032 0,-8.6399 c -0.0751,-2.9579 -1.113,-5.4299 -3.114,-7.4159 -2.001,-1.9859 -4.515,-3.0179 -7.5419,-3.096 h -25.92 c -3.027,0.07807 -5.5409,1.1101 -7.5419,3.096 -2.001,1.986 -3.039,4.458 -3.114,7.4159 v 25.776 c 0.075,3.027 1.113,5.541 3.114,7.5419 2.001,2.001 4.5149,3.039 7.5419,3.114 h 19.152 v 12.528 h -12.528 v -6.1919 l -17.28,4.176 v 8.7839 c 0.075,2.964 1.113,5.4599 3.114,7.4879 2.001,2.028 4.5149,3.084 7.5419,3.168 h 25.92 c 3.0269,-0.084 5.5409,-1.14 7.5419,-3.168 2.0009,-2.028 3.0389,-4.5239 3.114,-7.4879 v -25.92 c -0.0751,-3.0269 -1.113,-5.5409 -3.114,-7.5419 -2.001,-2.0009 -4.515,-3.0389 -7.5419,-3.114 z m 25.2,43.631 c -0.36305,0.294 -0.75304,0.57 -1.17,0.82799 -0.41704,0.258 -0.84303,0.46199 -1.278,0.61199 l -5.9039,-5.9039 h 3.888 l 4.464,4.464 z m -11.232,-26.784 6.6239,-6.4799 0,26.64 -6.6239,-6.6239 z m 2.88,-7.4879 2.736,0 -1.44,1.296 z m 0.288,2.304 -1.872,2.016 -4.464,-4.3199 4.032,0 z m 11.376,23.328 0,1.584 c -0.024,0.72 -0.12004,1.44 -0.28799,2.16 l -6.3359,-6.3359 v -4.032 z m -6.6239,-12.528 6.6239,6.4799 0,4.0319 -6.6239,-6.4799 z m 0,-6.0479 6.6239,6.6239 0,4.032 -6.6239,-6.6239 z m 0,-5.9039 6.6239,6.4799 0,4.032 -6.6239,-6.4799 z m 2.304,-3.744 4.3199,4.32 0,4.0319 -6.3359,-6.3359 z m 2.16,-2.16 c 0.50695,0.58503 0.93294,1.251 1.278,1.998 0.34494,0.74703 0.59094,1.521 0.73799,2.322 l -3.168,-3.168 z m -7.0559,-3.312 c 1.152,0.006 2.2319,0.21004 3.24,0.61199 1.0079,0.40204 1.9439,0.96604 2.808,1.692 l -4.32,4.32 h -27.936 l 6.4799,-6.6239 h 19.728 z m -28.08,14.4 c -0.72,-0.20997 -1.404,-0.47397 -2.052,-0.792 -0.648,-0.31796 -1.26,-0.72595 -1.836,-1.224 l 1.008,-1.008 z m 0.144,-6.0479 6.1919,6.1919 -4.0319,0 -4.176,-4.1759 z m 7.3439,-18.432 -6.6239,-6.6239 0,-4.0319 6.6239,6.6239 z m -6.6239,11.376 0,-4.0319 4.176,4.1759 -2.016,2.016 z m 6.6239,-9.3599 0,3.888 -6.6239,-6.4799 0,-4.032 z m -6.6239,3.312 0,-4.032 6.6239,6.6239 0,1.296 -1.44,1.296 z m 1.152,9.2159 -1.152,1.152 0,-2.448 z m 3.6,3.6 6.6239,6.4799 -4.032,0 -6.4799,-6.4799 z m 6.0479,0 6.6239,6.4799 -4.032,0 -6.6239,-6.4799 z m -9.7919,-29.664 4.032,0 6.4799,6.4799 -4.032,0 z m 16.56,6.4799 -4.032,0 -6.6239,-6.4799 4.032,0 z m -4.6079,-6.4799 4.032,0 5.1839,5.1839 -1.44,1.296 -1.296,0 z m 23.472,1.584 0,3.888 -6.3359,-6.3359 2.016,-2.016 z m -7.9199,-0.86399 0,4.0319 -6.6239,6.6239 0,-4.0319 z m -2.448,8.3519 1.728,1.728 -3.312,0.71999 -0.432,-0.43199 z m 3.024,-3.024 3.456,3.6 -3.168,0.71999 -2.304,-2.304 z m 6.0479,3.024 -0.86399,0.144 -1.728,-1.584 z m -5.3279,-8.2079 6.6239,6.6239 0,0.576 -6.6239,-3.456 z m -4.8959,-0.86399 2.448,0 -1.296,1.152 z m 0.144,2.16 -1.872,2.016 -4.32,-4.1759 4.032,0 z m 8.0639,-6.0479 1.008,-1.008 c 1.0079,1.1521 1.7279,2.592 2.16,4.3199 z m -5.9039,-4.1759 c 1.155,0.0091 2.2289,0.20707 3.222,0.59399 0.99294,0.38707 1.8869,0.90906 2.682,1.566 l -4.464,4.4639 h -29.088 l -4.3199,-4.3199 c 0.80097,-0.72592 1.719,-1.2899 2.754,-1.692 1.035,-0.40192 2.133,-0.60592 3.294,-0.61199 h 25.92 z m -35.136,9.2159 c 0.009,-1.0919 0.20699,-2.1479 0.59399,-3.168 0.38699,-1.0199 0.90898,-1.9319 1.566,-2.736 l 4.3199,4.3199 v 29.088 l -4.3199,4.3199 c -0.657,-0.80095 -1.179,-1.7189 -1.566,-2.754 -0.38701,-1.0349 -0.585,-2.1329 -0.59399,-3.294 v -25.776 z m 20.736,28.512 3.888,0 5.4719,5.3279 -1.296,1.152 -1.584,0 z m 14.544,28.512 -26.352,0 6.4799,-6.6239 13.248,0 z m -28.224,7.6319 c -1.44,-0.31199 -2.736,-0.98398 -3.8879,-2.016 l 1.008,-0.86399 z m 0.144,-5.9039 6.1919,6.1919 -4.0319,0 -4.176,-4.176 z m 0.86399,-6.9119 2.016,-2.016 2.016,2.016 -2.016,1.872 z m 3.024,-3.024 2.016,-2.016 1.44,1.296 0,1.296 -1.44,1.44 z m 3.024,-3.024 0.432,-0.432 0,0.86399 z m -12.96,1.872 11.808,-2.736 -5.9039,5.9039 z m 7.9199,7.0559 -1.152,1.296 0,-2.448 z m 3.6,3.6 6.6239,6.6239 -4.032,0 -6.4799,-6.6239 z m 6.0479,0 6.6239,6.6239 -4.032,0 -6.6239,-6.6239 z m 5.9039,0 6.6239,6.6239 -4.0319,0 -6.4799,-6.6239 z m -18.144,-6.1919 0,5.1839 -4.3199,4.3199 c -0.657,-0.79499 -1.179,-1.689 -1.566,-2.682 -0.38701,-0.99298 -0.585,-2.067 -0.59399,-3.222 v -7.1999 z m 20.16,6.1919 4.032,0 6.3359,6.3359 c -0.29404,0.075 -0.60604,0.141 -0.93599,0.198 -0.33004,0.057 -0.64203,0.087 -0.93599,0.09 h -1.872 z m 11.088,-0.71999 0,-4.032 5.9039,5.7599 c -0.45604,0.888 -0.98403,1.704 -1.584,2.448 z"
       id="path3140" />
  </g>
  <g
     line-height="125%"
     font-size="295.19335938px"
     transform="matrix(1.1055787,0,0,0.90450369,0,-146.36218)"
     style="font-size:295.19335938px;font-style:normal;font-weight:normal;line-height:125%;letter-spacing:0px;word-spacing:0px;fill:#606060;fill-opacity:1;font-family:Sans"
     id="text3075">
    <path
       inkscape:connector-curvature="0"
       d="m 156.99,995.01 33.652,-78.52 -36.604,0 -25.977,60.809 -3.8375,0 0,-60.809 -35.423,0 0,157.63 35.423,0 0,-61.399 4.1326,0 26.567,61.399 35.718,0 z"
       id="path3143"
       style="fill:#606060;fill-opacity:1" />
    <path
       inkscape:connector-curvature="0"
       d="m 300.96,1074.1 -13.579,-63.171 c 3.7451,-1.8387 6.7339,-4.5077 8.9664,-8.007 2.2323,-3.4991 3.3761,-7.4227 3.4316,-11.771 v -52.839 c -0.15385,-6.0635 -2.2817,-11.131 -6.3835,-15.202 -4.102,-4.071 -9.2555,-6.1865 -15.461,-6.3466 h -74.978 v 157.34 h 35.423 v -61.104 h 13.874 l 12.103,61.104 z m -36.899,-96.527 -25.681,0 0,-25.386 25.681,0 z"
       id="path3145"
       style="fill:#606060;fill-opacity:1" />
    <path
       inkscape:connector-curvature="0"
       d="m 415.66,938.34 c -0.15385,-6.205 -2.2817,-11.358 -6.3835,-15.461 -4.102,-4.1018 -9.2555,-6.2296 -15.461,-6.3835 h -53.134 c -6.2052,0.1539 -11.359,2.2817 -15.461,6.3835 -4.1019,4.102 -6.2297,9.2556 -6.3835,15.461 v 135.79 h 35.423 v -36.604 h 25.977 v 36.604 h 35.423 z m -35.423,63.466 -25.977,0 0,-49.887 25.977,0 z"
       id="path3147"
       style="fill:#606060;fill-opacity:1" />
    <path
       inkscape:connector-curvature="0"
       d="m 501.76,995.01 33.652,-78.52 -36.604,0 -25.977,60.809 -3.8375,0 0,-60.809 -35.423,0 0,157.63 35.423,0 0,-61.399 4.1327,0 26.567,61.399 35.718,0 z"
       id="path3149"
       style="fill:#606060;fill-opacity:1" />
    <path
       inkscape:connector-curvature="0"
       d="m 569.58,916.49 c -6.2052,0.1539 -11.359,2.2817 -15.461,6.3835 -4.1019,4.102 -6.2297,9.2556 -6.3835,15.461 v 113.94 c 0.15374,6.076 2.2816,11.193 6.3835,15.35 4.1019,4.1573 9.2554,6.322 15.461,6.4942 h 53.134 c 6.205,-0.1722 11.359,-2.3369 15.461,-6.4942 4.1018,-4.1572 6.2296,-9.2738 6.3835,-15.35 v -113.94 c -0.15385,-6.205 -2.2817,-11.358 -6.3835,-15.461 -4.102,-4.1018 -9.2555,-6.2296 -15.461,-6.3835 z m 39.26,121.91 -25.681,0 0,-86.491 25.681,0 z"
       id="path3151"
       style="fill:#606060;fill-opacity:1" />
    <path
       inkscape:connector-curvature="0"
       d="m 784.38,916.49 -1.7711,121.91 -3.5423,0 -21.254,-121.91 -33.652,0 -20.663,121.91 -4.1326,0 -1.476,-121.91 -35.423,0 4.1327,157.63 65.237,0 9.1509,-53.429 9.4461,53.429 65.237,0 4.1327,-157.63 z"
       id="path3153"
       style="fill:#606060;fill-opacity:1" />
  </g>
</svg>
