<?xml version="1.0" encoding="UTF-8" standalone="no"?>
<!-- Created with Inkscape (http://www.inkscape.org/) -->

<svg
   xmlns:dc="http://purl.org/dc/elements/1.1/"
   xmlns:cc="http://creativecommons.org/ns#"
   xmlns:rdf="http://www.w3.org/1999/02/22-rdf-syntax-ns#"
   xmlns:svg="http://www.w3.org/2000/svg"
   xmlns="http://www.w3.org/2000/svg"
   xmlns:sodipodi="http://sodipodi.sourceforge.net/DTD/sodipodi-0.dtd"
   xmlns:inkscape="http://www.inkscape.org/namespaces/inkscape"
   id="svg3004"
   version="1.1"
   inkscape:version="0.48.4 r9939"
   width="500"
   height="500"
   xml:space="preserve"
   sodipodi:docname="herb.svg"><metadata
     id="metadata3010"><rdf:RDF><cc:Work
         rdf:about=""><dc:format>image/svg+xml</dc:format><dc:type
           rdf:resource="http://purl.org/dc/dcmitype/StillImage" /><dc:title></dc:title></cc:Work></rdf:RDF></metadata><defs
     id="defs3008" /><sodipodi:namedview
     pagecolor="#ffffff"
     bordercolor="#666666"
     borderopacity="1"
     objecttolerance="10"
     gridtolerance="10"
     guidetolerance="10"
     inkscape:pageopacity="0"
     inkscape:pageshadow="2"
     inkscape:window-width="1366"
     inkscape:window-height="709"
     id="namedview3006"
     showgrid="false"
     inkscape:zoom="0.6457289"
     inkscape:cx="-328.00302"
     inkscape:cy="289.29057"
     inkscape:window-x="0"
     inkscape:window-y="27"
     inkscape:window-maximized="1"
     inkscape:current-layer="g3012" /><g
     id="g3012"
     inkscape:groupmode="layer"
     inkscape:label="her_pds_c"
     transform="matrix(1.25,0,0,-1.25,-2115,2480)"><path
       d="m 1992.7979,1717.2445 c 0,-55.6651 -45.1314,-100.7917 -100.8017,-100.7938 -55.6698,0 -100.7962,45.1207 -100.794,100.7863 l 0.012,120.2719 201.5822,0.01 0,-120.2725 z"
       style="fill:#1c58aa;fill-opacity:1;fill-rule:evenodd;stroke:none"
       id="path3014"
       inkscape:connector-curvature="0" /><path
       d="m 1920.1816,1767.588 10.5314,-8.2321 -55.0305,-70.4537 -10.5315,8.2321 55.0306,70.4537 z"
       style="fill:#fbc707;fill-opacity:1;fill-rule:evenodd;stroke:none"
       id="path3016"
       inkscape:connector-curvature="0" /><path
       d="m 1851.5123,1649.6726 c -1.8284,-2.1851 -5.0995,-2.4862 -7.0181,-1.0136 l -10.6836,8.3468 c -1.9071,1.49 -2.5893,4.6103 -0.7724,6.938 l 1.5443,1.9769 c 1.8584,2.3785 5.0082,2.4138 6.9222,0.8683 l 10.6734,-8.3183 c 1.9378,-1.5346 2.4055,-4.802 0.9225,-6.7654 l -1.5883,-2.0327 z"
       style="fill:#fbc707;fill-opacity:1;fill-rule:evenodd;stroke:none"
       id="path3018"
       inkscape:connector-curvature="0" /><path
       d="m 1930.5707,1803.7033 -3.2991,-7.1333 c -0.1554,-0.3091 -0.035,-1.0313 0.3327,-1.3338 2.7334,-2.3457 4.0697,-6.1538 3.8138,-9.31 0,-3.4419 -1.157,-5.8765 -4.1645,-9.2925 l 10.5744,-8.2617 c 2.5866,3.7446 4.6688,5.4582 8.009,6.2888 3.0009,1.0122 7.0188,0.6365 9.9561,-1.448 0.3825,-0.2837 1.1125,-0.2261 1.3744,-7e-4 l 6.1236,4.9267 -32.7204,25.5645 z"
       style="fill:#fbc707;fill-opacity:1;fill-rule:evenodd;stroke:none"
       id="path3020"
       inkscape:connector-curvature="0" /><path
       d="m 1964.8937,1779.4774 16.6262,12.9334 c 0.2514,0.198 0.1814,1.1748 -0.7356,0.9914 l -10.2222,-0.9519 0.071,7.2776 c 0.031,0.4673 -0.6663,1.0933 -1.1512,0.9397 l -7.0156,-1.9362 3.4053,15.5019 c 0.075,0.2856 -0.069,0.5823 -0.1839,0.6924 -0.1342,0.084 -0.4602,0.155 -0.7194,0.013 l -14.2174,-7.0544 0.1815,7.2761 c 0.032,0.5071 -0.7443,1.0325 -1.1902,0.8889 l -7.0444,-1.8293 -1.5492,10.1486 c -0.044,0.9344 -1.0087,0.7659 -1.1398,0.4742 l -8.5275,-19.2613 33.4123,-26.1045 z"
       style="fill:#fbc707;fill-opacity:1;fill-rule:evenodd;stroke:none"
       id="path3022"
       inkscape:connector-curvature="0" /><path
       d="m 1937.629,1765.851 c 2.9376,-2.2503 -1.5035,-8.1726 -4.5577,-5.8335 l -12.7737,9.9797 c -3.0081,2.3975 1.664,8.1399 4.5578,5.8338 l 12.7736,-9.98 z"
       style="fill:#fbc707;fill-opacity:1;fill-rule:evenodd;stroke:none"
       id="path3024"
       inkscape:connector-curvature="0" /><path
       d="m 1875.4867,1686.313 c 2.9376,-2.2504 -1.5038,-8.1723 -4.5579,-5.8337 l -12.7737,9.9798 c -3.008,2.3976 1.6638,8.1398 4.5579,5.8338 l 12.7737,-9.9799 z"
       style="fill:#fbc707;fill-opacity:1;fill-rule:evenodd;stroke:none"
       id="path3026"
       inkscape:connector-curvature="0" /><path
       d="m 1857.9773,1687.8826 10.551,-8.2437 -15.2001,-19.4548 -10.5512,8.2435 15.2003,19.455 z"
       style="fill:#fbc707;fill-opacity:1;fill-rule:evenodd;stroke:none"
       id="path3028"
       inkscape:connector-curvature="0" /><path
       d="m 1901.777,1719.0749 17.3103,-22.1618 -10.5315,-8.232 -15.2594,19.5361 8.4806,10.8577 z m -38.0658,48.7346 27.0599,-34.6443 -8.4805,-10.8577 -29.1108,37.2698 10.5314,8.2322 z"
       style="fill:#fbc707;fill-opacity:1;fill-rule:evenodd;stroke:none"
       id="path3030"
       inkscape:connector-curvature="0" /><path
       d="m 1932.7257,1649.4514 c 1.8286,-2.1851 5.0997,-2.4862 7.0183,-1.0136 l 10.6835,8.3469 c 1.9071,1.49 2.5894,4.6102 0.7725,6.9379 l -1.5441,1.9769 c -1.8587,2.3785 -5.0083,2.4139 -6.9225,0.8683 l -10.6735,-8.3181 c -1.9377,-1.5347 -2.4054,-4.8022 -0.9224,-6.7654 l 1.5882,-2.0329 z"
       style="fill:#fbc707;fill-opacity:1;fill-rule:evenodd;stroke:none"
       id="path3032"
       inkscape:connector-curvature="0" /><path
       d="m 1853.3224,1803.9245 3.2989,-7.1333 c 0.1554,-0.3089 0.035,-1.0313 -0.3329,-1.3338 -2.7332,-2.3454 -4.0696,-6.1538 -3.8137,-9.31 0,-3.4419 1.157,-5.8765 4.1646,-9.2923 l -10.5745,-8.2619 c -2.5867,3.7446 -4.6687,5.4585 -8.009,6.2888 -3.0008,1.0122 -7.0188,0.6365 -9.9561,-1.448 -0.3824,-0.2835 -1.1124,-0.2261 -1.3744,-5e-4 l -6.1236,4.9268 32.7207,25.5642 z"
       style="fill:#fbc707;fill-opacity:1;fill-rule:evenodd;stroke:none"
       id="path3034"
       inkscape:connector-curvature="0" /><path
       d="m 1818.9992,1779.6986 -16.6262,12.9334 c -0.2514,0.198 -0.1815,1.1748 0.7356,0.9914 l 10.2221,-0.9519 -0.071,7.2776 c -0.031,0.4676 0.6664,1.0935 1.151,0.9397 l 7.0158,-1.9363 -3.4054,15.502 c -0.075,0.2856 0.069,0.5823 0.1838,0.6924 0.1344,0.085 0.4604,0.155 0.7195,0.013 l 14.2175,-7.0544 -0.1815,7.2758 c -0.032,0.5074 0.7443,1.0328 1.1903,0.8894 l 7.0443,-1.8295 1.5492,10.1486 c 0.044,0.9344 1.0086,0.7659 1.1398,0.4742 l 8.5275,-19.2613 -33.4123,-26.1045 z"
       style="fill:#fbc707;fill-opacity:1;fill-rule:evenodd;stroke:none"
       id="path3036"
       inkscape:connector-curvature="0" /><path
       d="m 1846.2639,1766.0722 c -2.9378,-2.2503 1.5035,-8.1724 4.5577,-5.8335 l 12.7737,9.9797 c 3.0079,2.3975 -1.6641,8.1399 -4.558,5.8335 l -12.7734,-9.9797 z"
       style="fill:#fbc707;fill-opacity:1;fill-rule:evenodd;stroke:none"
       id="path3038"
       inkscape:connector-curvature="0" /><path
       d="m 1908.7517,1686.0917 c -2.9378,-2.2502 1.5038,-8.1724 4.5578,-5.8337 l 12.7735,9.9798 c 3.0082,2.3977 -1.6636,8.1398 -4.5578,5.8339 l -12.7735,-9.98 z"
       style="fill:#fbc707;fill-opacity:1;fill-rule:evenodd;stroke:none"
       id="path3040"
       inkscape:connector-curvature="0" /><path
       d="m 1926.2611,1687.6614 -10.5512,-8.2435 15.2001,-19.455 10.5513,8.2435 -15.2002,19.455 z"
       style="fill:#fbc707;fill-opacity:1;fill-rule:evenodd;stroke:none"
       id="path3042"
       inkscape:connector-curvature="0" /><path
       d="m 1830.7372,1846.8188 -5.0441,13.6154 -10.2835,27.0679 c -7.4609,19.644 -14.9713,39.4253 -15.2778,40.0508 l -0.6702,1.9531 c 0,0 0.3041,0.9119 0.9728,1.1553 0.4865,0.3039 3.8911,-1.52 7.2552,-2.586 2.3485,-0.7441 5.1697,-1.9951 8.5382,-2.7512 3.5598,-0.8325 5.0293,-1.4785 7.507,-4.8838 1.1386,-1.8042 1.1256,-4.653 1.0579,-6.5756 3.251,5.9501 7.9315,9.799 15.4249,8.6762 8.8773,-1.1091 12.4822,-13.0935 7.3861,-17.9668 -1.567,-1.8647 -5.0782,-5.1872 -1.6284,-7.1699 0.7163,-0.2861 1.57,-0.085 1.57,-0.085 0,0 -0.3515,-1.8577 -0.9335,-2.6924 -1.6685,-2.4458 -7.9425,-5.1982 -11.2123,-0.5176 -1.3851,2.1663 -1.6282,3.3948 -1.0662,5.8174 l 0.5184,2.1157 c -0.052,1.3045 -1.7499,2.1221 -3.4618,1.617 -0.6442,-0.2283 -1.9787,-1.262 -2.2141,-5.0845 -0.6927,-9.4787 5.1195,-21.9211 17.9768,-18.4958 6.4735,1.7246 8.1971,4.1814 8.4303,7.7644 -2.8398,0.9581 -4.8837,3.6416 -4.8837,6.8047 0,3.9655 2.7219,7.1801 6.6874,7.1801 3.9653,0 7.1801,-3.2146 7.1801,-7.1801 0,-2.2237 -1.0117,-4.2095 -2.5942,-5.5247 1.4967,-3.4395 3.4014,-5.3997 10.3016,-4.7864 13.2536,1.1785 14.8581,14.9264 10.9655,23.5966 -1.5538,3.57 -3.1917,4.0411 -3.8542,4.0188 -1.7649,-0.1255 -3.0601,-1.4656 -2.6653,-2.7017 l 1.2111,-1.811 c 1.3566,-2.0843 1.5485,-3.3211 0.9875,-5.8309 -1.4715,-5.5166 -8.3089,-5.0761 -10.713,-3.3483 -1.0202,0.7657 -1.8234,2.3725 -1.8234,2.3725 0,0 1.2551,0.05 1.4716,0.4553 2.5793,3.0618 -1.9184,4.9793 -4.0298,6.208 -6.4075,2.8821 -7.1183,15.3326 0.8587,19.3897 6.3649,3.4587 10.8893,1.8801 15.5192,-1.4678 0.4733,-0.3423 0.8896,-0.8559 1.1998,-1.1999 -0.2704,0.6247 -0.3635,0.7268 -0.6782,1.355 -0.3227,0.6931 -0.6998,1.4875 -0.7606,2.3674 -0.4353,2.7002 0.043,5.5232 1.2128,7.636 1.1687,2.0166 2.8243,3.6611 4.2592,5.4773 1.5548,1.9675 3.3189,4.3899 4.9054,8.3354 0.2494,0.4387 0.7752,1.928 1.1615,2.1499 0.1234,0.107 0.2708,0.1726 0.5684,0.21 0.2975,-0.037 0.4827,-0.103 0.6061,-0.21 0.3863,-0.2219 0.912,-1.7112 1.1613,-2.1499 1.5866,-3.9455 3.3506,-6.3679 4.9056,-8.3354 1.4349,-1.8162 3.0905,-3.4607 4.2592,-5.4773 1.1697,-2.1128 1.6481,-4.9358 1.2127,-7.636 -0.061,-0.8799 -0.4378,-1.6743 -0.7606,-2.3674 -0.3147,-0.6282 -0.4079,-0.7303 -0.6783,-1.355 0.3103,0.344 0.7266,0.8576 1.2,1.1999 4.6299,3.3479 9.1543,4.9265 15.5192,1.4678 7.977,-4.0571 7.2661,-16.5076 0.8586,-19.3897 -2.1114,-1.2287 -6.6091,-3.1462 -4.0298,-6.208 0.2166,-0.4052 1.4717,-0.4553 1.4717,-0.4553 0,0 -0.8033,-1.6068 -1.8235,-2.3725 -2.4042,-1.7278 -9.2416,-2.1683 -10.7129,3.3483 -0.561,2.5098 -0.3691,3.7466 0.9874,5.8309 l 1.2112,1.811 c 0.3947,1.2361 -0.9004,2.5762 -2.6653,2.7017 -0.6627,0.022 -2.3004,-0.4488 -3.8543,-4.0188 -3.8926,-8.6702 -2.2881,-22.418 10.9655,-23.5966 6.9003,-0.6133 8.805,1.3469 10.3017,4.7864 -1.5827,1.3152 -2.5943,3.301 -2.5943,5.5247 0,3.9655 3.2148,7.1801 7.1801,7.1801 3.9656,0 6.6874,-3.2146 6.6874,-7.1801 0,-3.1631 -2.0438,-5.8467 -4.8837,-6.8047 0.2333,-3.583 1.9568,-6.0398 8.4303,-7.7644 12.8574,-3.4253 18.6696,9.0171 17.9768,18.4958 -0.2355,3.8225 -1.5699,4.8562 -2.214,5.0845 -1.712,0.5051 -3.4098,-0.3125 -3.4619,-1.617 l 0.5183,-2.1157 c 0.562,-2.4226 0.3191,-3.6511 -1.0661,-5.8174 -3.2697,-4.6806 -9.5437,-1.9282 -11.2122,0.5176 -0.582,0.8347 -0.9335,2.6924 -0.9335,2.6924 0,0 0.8535,-0.2009 1.5699,0.085 3.4498,1.9827 -0.061,5.3052 -1.6285,7.1699 -5.096,4.8733 -1.4912,16.8577 7.3861,17.9668 7.4935,1.1228 12.1741,-2.7261 15.4251,-8.6762 -0.068,1.9226 -0.081,4.7714 1.0579,6.5756 2.4775,3.4053 3.9472,4.0513 7.507,4.8838 3.3684,0.7561 6.1897,2.0071 8.5381,2.7512 3.364,1.066 6.7688,2.8899 7.2551,2.586 0.6688,-0.2434 0.9729,-1.1553 0.9729,-1.1553 l -0.6701,-1.9531 c -0.3067,-0.6255 -7.8169,-20.4068 -15.2778,-40.0508 l -10.2835,-27.0679 -5.0442,-13.6154 -122.7038,0 z"
       style="fill:#1c58aa;fill-opacity:1;fill-rule:nonzero;stroke:none"
       id="path3044"
       inkscape:connector-curvature="0" /><path
       d="m 1832.0981,1849.163 c -0.1573,0.175 -29.56,77.8899 -30.1717,79.1387 1.9472,-0.6033 6.8925,-3.387 13.8341,-4.9456 2.2926,-0.5361 3.8167,-0.6477 6.2964,-4.0559 1.3343,-2.114 1.0764,-5.3972 0.6994,-7.2664 0.3017,-0.9304 1.9301,-1.6281 2.761,-0.5647 2.0914,3.6297 5.1167,10.4595 14.2423,9.0918 7.4617,-0.9106 10.0752,-11.0793 6.2127,-14.6198 -1.4079,-1.6963 -6.742,-6.9283 -1.175,-10.1277 -1.338,-1.9614 -5.869,-3.5027 -7.946,-0.5296 -1.527,2.3875 -1.1311,2.7483 -0.2218,6.5674 0.1819,3.7566 -4.0825,4.2434 -5.9229,3.7007 -1.7163,-0.5596 -3.3105,-2.5442 -3.5709,-6.7725 -0.711,-9.7304 5.9859,-24.5434 20.8898,-20.573 8.3738,2.231 9.1974,6.324 9.2701,11.3418 -2.7381,0.1529 -4.9115,2.4222 -4.9115,5.1988 0,2.8755 2.3311,5.2068 5.2068,5.2068 2.8756,0 5.2066,-2.3313 5.2066,-5.2068 0,-2.073 -1.2113,-3.8631 -2.965,-4.7007 0.1157,-0.4871 0.4114,-1.2205 0.6036,-1.7056 1.7303,-3.9724 4.2751,-6.7739 12.0224,-6.0852 15.3629,1.366 16.5901,17.5759 12.594,26.4766 -1.6908,3.884 -3.8678,5.2036 -5.6714,5.1426 -1.9151,-0.1194 -5.7555,-2.0352 -4.3002,-5.503 2.1608,-3.2776 2.6558,-3.4817 2.0374,-6.247 -0.9344,-3.5042 -5.7199,-3.6053 -7.6477,-2.22 4.1369,4.9104 -2.6647,8.0024 -4.5674,9.115 -4.8406,2.0063 -5.8623,12.4553 0.8379,15.863 8.1074,4.4058 13.2862,-0.9773 16.4928,-3.6728 1.1442,-0.7154 2.4359,0.4973 2.401,1.4748 -0.8081,1.3238 -2.6104,3.1077 -2.6902,5.2083 -0.385,2.31 0.027,4.6799 0.9703,6.3845 1.914,3.3027 5.7785,5.7825 9.1828,13.8308 3.4041,-8.0483 7.2515,-10.5281 9.1655,-13.8308 0.9436,-1.7046 1.3552,-4.0745 0.9702,-6.3845 -0.08,-2.1006 -1.882,-3.8845 -2.6902,-5.2083 -0.035,-0.9775 1.2568,-2.1902 2.401,-1.4748 3.2067,2.6955 8.3855,8.0786 16.4928,3.6728 6.7002,-3.4077 5.6785,-13.8567 0.8379,-15.863 -1.9027,-1.1126 -8.7043,-4.2046 -4.5673,-9.115 -1.9278,-1.3853 -6.7133,-1.2842 -7.6478,2.22 -0.6183,2.7653 -0.1234,2.9694 2.0374,6.247 1.4553,3.4678 -2.3852,5.3836 -4.3001,5.503 -1.8037,0.061 -3.9807,-1.2586 -5.6714,-5.1426 -3.9962,-8.9007 -2.7689,-25.1106 12.5939,-26.4766 7.7474,-0.6887 10.2921,2.1128 12.0223,6.0852 0.1923,0.4851 0.488,1.2185 0.6038,1.7056 -1.7537,0.8376 -2.965,2.6277 -2.965,4.7007 0,2.8755 2.331,5.2068 5.2065,5.2068 2.8757,0 5.2069,-2.3313 5.2069,-5.2068 0,-2.7766 -2.1735,-5.0459 -4.9115,-5.1988 0.073,-5.0178 0.8962,-9.1108 9.27,-11.3418 14.9039,-3.9704 21.6008,10.8426 20.8898,20.573 -0.2603,4.2283 -1.8547,6.2129 -3.571,6.7725 -1.8403,0.5427 -6.1046,0.056 -5.9228,-3.7007 0.9094,-3.8191 1.3052,-4.1799 -0.2218,-6.5674 -2.0769,-2.9731 -6.6079,-1.4318 -7.9459,0.5296 5.567,3.1994 0.2327,8.4314 -1.1751,10.1277 -3.8625,3.5405 -1.249,13.7092 6.2127,14.6198 9.1256,1.3677 12.1508,-5.4621 14.2424,-9.0918 0.8308,-1.0634 2.4592,-0.3657 2.761,0.5647 -0.377,1.8692 -0.635,5.1524 0.6994,7.2664 2.4795,3.4082 4.0037,3.5198 6.2964,4.0559 6.9414,1.5586 11.8867,4.3423 13.834,4.9456 -0.6116,-1.2488 -30.0144,-78.9637 -30.1716,-79.1387 l -119.9821,0 z"
       style="fill:#fbc707;fill-opacity:1;fill-rule:nonzero;stroke:none"
       id="path3046"
       inkscape:connector-curvature="0" /></g></svg>